<svg xmlns="http://www.w3.org/2000/svg" viewBox="0 0 1600 460" role="img" aria-label="واجهة مستوحاة من المسجد النبوي">
  <defs>
    <linearGradient id="sky" x1="0" y1="0" x2="1" y2="1"><stop stop-color="#0b3158"/><stop offset="1" stop-color="#145b78"/></linearGradient>
    <linearGradient id="glow" x1="0" y1="0" x2="0" y2="1"><stop stop-color="#f3dca4" stop-opacity=".75"/><stop offset="1" stop-color="#c89b3c" stop-opacity=".08"/></linearGradient>
  </defs>
  <rect width="1600" height="460" fill="url(#sky)"/>
  <circle cx="270" cy="105" r="76" fill="#f5d88a" opacity=".22"/>
  <path d="M0 360h1600v100H0z" fill="#071e35" opacity=".72"/>
  <g fill="none" stroke="#e8d4a3" stroke-width="7" opacity=".72">
    <path d="M170 360V170m0 0-24 42h48zM1430 360V145m0 0-24 42h48z"/>
    <path d="M300 360V235m0 0-18 32h36zM1300 360V220m0 0-18 32h36z"/>
  </g>
  <g fill="#f4ead0" opacity=".85">
    <path d="M460 360V250h680v110z"/>
    <path d="M520 250c0-58 48-105 106-105s106 47 106 105z"/>
    <path d="M868 250c0-72 58-130 130-130s130 58 130 130z" fill="#2f8d64"/>
    <rect x="445" y="270" width="710" height="90" rx="4"/>
  </g>
  <g fill="#c89b3c" opacity=".75"><rect x="0" y="355" width="1600" height="5"/><rect x="0" y="392" width="1600" height="2"/></g>
  <rect width="1600" height="460" fill="url(#glow)" opacity=".18"/>
</svg>
